<svg xmlns="http://www.w3.org/2000/svg" width="2222" height="2000"><g transform="translate(1066.26 211.371)"><path d="M734.198 702.65H552.546l5.858-68.364s-72.942-90.241-62.908-158.367c13.207-89.668 12.746-137.635 12.746-137.635s-10.698-180.96-11.694-234.265c-1.213-64.974 71.382-74.612 78.656-10.595 9.64 84.847 23.755 245.798 23.755 245.798 12.621-31.909 56.473-205.471 66.309-245.798 16.993-69.674 87.576-48.995 81.072 1.895-9.88 77.286-62.929 222.84-62.929 222.84s20.917-23.886 44.928-15.626c36.764 12.647 27.345 52.736 27.345 52.736s38.712-22.05 56.291 28.734c17.58 50.783 7.084 75.99-2.263 114.419-17.58 72.269-73.56 141.724-73.56 141.724l-1.954 62.504z" style="fill:#f7cfbe" transform="translate(93.75 -118.75)"/><path fill="none" d="M734.198 702.65H552.546l5.858-68.364s-72.942-90.241-62.908-158.367c13.207-89.668 12.746-137.635 12.746-137.635s-10.698-180.96-11.694-234.265c-1.213-64.974 71.382-74.612 78.656-10.595 9.64 84.847 23.755 245.798 23.755 245.798 12.621-31.909 56.473-205.471 66.309-245.798 16.993-69.674 87.576-48.995 81.072 1.895-9.88 77.286-62.929 222.84-62.929 222.84s20.917-23.886 44.928-15.626c36.764 12.647 27.345 52.736 27.345 52.736s38.712-22.05 56.291 28.734c17.58 50.783 7.084 75.99-2.263 114.419-17.58 72.269-73.56 141.724-73.56 141.724l-1.954 62.504z" style="fill-opacity:0;stroke:#e16049;stroke-width:18.69300079;stroke-linecap:round;stroke-linejoin:round" transform="translate(93.75 -118.75)"/><path fill="none" d="M683.411 318.159s-64.457 126.356-17.577 143.933c46.878 17.578 46.878-17.577 56.643-35.159 9.768-17.578 33.207-71.664 33.207-71.664s-41.792 86.033-43.401 105.201c-2.383 28.4 32.082 38.591 45.753 26.872 13.674-11.718 29.299-50.782 29.299-50.782l13.4-9.601" style="fill-opacity:0;stroke:#e16049;stroke-width:18.69300079;stroke-linecap:round;stroke-linejoin:round" transform="translate(93.75 -118.75)"/><path d="M566.864 529.447s15.307-29.315 38.233-33.137c76.467-12.745 84.021-101.216 5.096-89.207-117.246 17.842-112.148 73.915-112.148 73.915" style="fill:#f7cfbe" transform="translate(93.75 -118.75)"/><path fill="none" d="M566.864 529.447s15.307-29.315 38.233-33.137c76.467-12.745 84.021-101.216 5.096-89.207-117.246 17.842-112.148 73.915-112.148 73.915" style="fill-opacity:0;stroke:#e16049;stroke-width:18.69300079;stroke-linecap:round;stroke-linejoin:round" transform="translate(93.75 -118.75)"/><path d="M1246.9 702.65h-181.654l5.861-68.364s-101.02-80.62-91.716-148.849c4.236-31.069 26.06-46.027 29.564-51.281 5.647-8.473 1.513-51.455 8.565-95.279 8.728-54.233 41.305-64.866 72.023-56.49 31.068 8.475 26.489 34.242 26.489 34.242s19.533-29.3 50.783-23.438c26.947 5.05 29.298 35.158 29.298 35.158s20.916-23.887 44.929-15.627c36.762 12.649 27.344 52.737 27.344 52.737s48.789-40.439 66.366 10.344c17.583 50.785-7.822 83.323-12.338 122.614-12.212 106.193-73.56 141.727-73.56 141.727l-1.954 62.506z" style="fill:#f7cfbe" transform="rotate(90 362.36 -516.404)"/><path fill="none" d="M1246.9 702.65h-181.654l5.861-68.364s-101.02-80.62-91.716-148.849c4.236-31.069 26.06-46.027 29.564-51.281 5.647-8.473 1.513-51.455 8.565-95.279 8.728-54.233 41.305-64.866 72.023-56.49 31.068 8.475 26.489 34.242 26.489 34.242s19.533-29.3 50.783-23.438c26.947 5.05 29.298 35.158 29.298 35.158s20.916-23.887 44.929-15.627c36.762 12.649 27.344 52.737 27.344 52.737s48.789-40.439 66.366 10.344c17.583 50.785-7.822 83.323-12.338 122.614-12.212 106.193-73.56 141.727-73.56 141.727l-1.954 62.506z" style="fill-opacity:0;stroke:#e16049;stroke-width:18.69300079;stroke-linecap:round;stroke-linejoin:round" transform="rotate(90 362.36 -516.404)"/><path fill="none" d="M1114.255 323.785s-45.315 123.26-2.149 131.21c48.619 8.951 65.574-15.746 67.048-34.927 1.947-25.284 18.827-94.845 18.827-94.845s-45.511 144.12 2.167 150.622c49.608 6.766 47.334-35.272 54.181-54.179 6.849-18.908 16.848-68.906 16.848-68.906s-21.347 81.933-26.126 100.566c-10.227 39.857 64.512 83.341 77.193-22.991l8.67-3.252" style="fill-opacity:0;stroke:#e16049;stroke-width:18.69300079;stroke-linecap:round;stroke-linejoin:round" transform="rotate(90 362.36 -516.404)"/><path d="M1079.565 529.443s15.14-30.508 38.235-33.133c113.076-12.865 85.034-106.834 6.111-94.824-117.248 17.843-137.459 69.829-137.459 69.829" style="fill:#f7cfbe" transform="rotate(90 362.36 -516.404)"/><path fill="none" d="M1079.565 529.443s15.14-30.508 38.235-33.133c113.076-12.865 85.034-106.834 6.111-94.824-117.248 17.843-137.459 69.829-137.459 69.829" style="fill-opacity:0;stroke:#e16049;stroke-width:18.69300079;stroke-linecap:round;stroke-linejoin:round" transform="rotate(90 362.36 -516.404)"/><path d="M1841.498 702.65h-181.655l5.86-68.364s-84.845-50.396-74.81-118.524c13.204-89.671 24.646-177.483 24.646-177.483s9.662-185.32 12.466-238.56c3.907-74.222 70.473-74.034 70.473-9.605 0 89.849.79 112.809-.584 130.709-1.956 25.391 3.141 87.896 3.141 87.896s14.436-233.846 14.436-265.642c0-31.251 66.408-58.598 70.316 5.859 5.948 98.147-6.621 263.688-6.621 263.688s13.797-198.725 22.246-222.669c11.721-33.206 57.605-29.418 56.646 13.672-1.951 87.748-10.527 226.578-10.527 226.578s8.554-85.237 14.182-138.682c3.904-37.111 52.734-62.504 54.689 13.675 1.08 42.161 2.586 96.144-3.906 148.445-8.172 65.807 8.573 118.913.685 154.307-16.187 72.598-69.734 132.194-69.734 132.194l-1.949 62.506z" style="fill:#f7cfbe" transform="translate(-1664.462 767.389)"/><path fill="none" d="M1841.498 702.65h-181.655l5.86-68.364s-84.845-50.396-74.81-118.524c13.204-89.671 24.646-177.483 24.646-177.483s9.662-185.32 12.466-238.56c3.907-74.222 70.473-74.034 70.473-9.605 0 89.849.79 112.809-.584 130.709-1.956 25.391 3.141 87.896 3.141 87.896s14.436-233.846 14.436-265.642c0-31.251 66.408-58.598 70.316 5.859 5.948 98.147-6.621 263.688-6.621 263.688s13.797-198.725 22.246-222.669c11.721-33.206 57.605-29.418 56.646 13.672-1.951 87.748-10.527 226.578-10.527 226.578s8.554-85.237 14.182-138.682c3.904-37.111 52.734-62.504 54.689 13.675 1.08 42.161 2.586 96.144-3.906 148.445-8.172 65.807 8.573 118.913.685 154.307-16.187 72.598-69.734 132.194-69.734 132.194l-1.949 62.506z" style="fill-opacity:0;stroke:#e16049;stroke-width:18.69300079;stroke-linecap:round;stroke-linejoin:round" transform="translate(-1664.462 767.389)"/><path d="M1598.704 566.546s-37.108-80.079-48.828-101.567c-11.721-21.488-41.369-95.561-48.835-113.29-15.626-37.111 37.114-54.69 60.555-31.251 23.437 23.438 58.595 89.85 58.595 89.85s40.307 15.389 52.736 19.533c23.442 7.812 39.067 41.017 39.067 41.017" style="fill:#f7cfbe" transform="translate(-1664.462 767.389)"/><path fill="none" d="M1598.704 566.546s-37.108-80.079-48.828-101.567c-11.721-21.488-41.369-95.561-48.835-113.29-15.626-37.111 37.114-54.69 60.555-31.251 23.437 23.438 58.595 89.85 58.595 89.85s40.307 15.389 52.736 19.533c23.442 7.812 39.067 41.017 39.067 41.017" style="fill-opacity:0;stroke:#e16049;stroke-width:18.69300079;stroke-linecap:round;stroke-linejoin:round" transform="translate(-1664.462 767.389)"/><path d="m-363.385 255.673 865.04-7.032L65.62 705.776Z" style="fill:none;fill-rule:evenodd;stroke:#e16049;stroke-width:42;stroke-linecap:round;stroke-linejoin:bevel;stroke-miterlimit:4;stroke-dasharray:none;stroke-opacity:.95588235"/><rect width="642.383" height="146.22" x="-230.958" y="1513.356" ry="56.238" style="opacity:1;fill:#f7e6be;fill-opacity:1;fill-rule:evenodd;stroke:#e16049;stroke-width:20.60581017;stroke-linecap:round;stroke-linejoin:bevel;stroke-miterlimit:4;stroke-dasharray:none;stroke-opacity:.95588235"/><g style="font-style:normal;font-weight:400;font-size:113.58812714px;line-height:125%;font-family:sans-serif;letter-spacing:0;word-spacing:0;fill:#e16049;fill-opacity:.95686275;stroke:none;stroke-width:1px;stroke-linecap:butt;stroke-linejoin:miter;stroke-opacity:1"><path d="M-143.123 1890.408q0 5.546-1.941 10.87-1.942 5.27-5.547 8.875-4.936 4.88-11.037 7.376-6.045 2.496-15.086 2.496h-13.255v26.9h-21.298v-82.585h35.052q7.876 0 13.256 1.387 5.435 1.331 9.595 4.049 4.992 3.272 7.599 8.375 2.662 5.102 2.662 12.257zm-22.019.5q0-3.495-1.886-5.99-1.885-2.552-4.381-3.55-3.328-1.332-6.49-1.443-3.16-.166-8.43-.166h-3.66v24.736h6.1q5.436 0 8.93-.665 3.55-.666 5.935-2.662 2.052-1.775 2.94-4.215.942-2.496.942-6.046zM-51.776 1946.925h-22.018l-5.713-16.695h-30.616l-5.712 16.695H-137.3l30.505-82.585h24.515l30.504 82.585zm-32.89-31.836-10.149-29.617-10.15 29.617h20.3zM28.368 1890.408q0 5.546-1.94 10.87-1.942 5.27-5.547 8.875-4.936 4.88-11.037 7.376-6.046 2.496-15.086 2.496h-13.256v26.9h-21.298v-82.585h35.053q7.876 0 13.256 1.387 5.435 1.331 9.595 4.049 4.991 3.272 7.598 8.375 2.662 5.102 2.662 12.257zm-22.019.5q0-3.495-1.885-5.99-1.886-2.552-4.382-3.55-3.328-1.332-6.489-1.443-3.161-.166-8.43-.166h-3.66v24.736h6.1q5.435 0 8.93-.665 3.55-.666 5.934-2.662 2.052-1.775 2.94-4.215.942-2.496.942-6.046zM103.132 1946.925H43.4v-82.585h59.733v15.974H64.586v14.254h35.773v15.973H64.586v20.41h38.546v15.974zM167.358 1889.631q0-3.106-1.275-5.324-1.276-2.219-4.382-3.494-2.163-.888-5.047-1.054-2.884-.222-6.71-.222h-7.71v22.24h6.544q5.103 0 8.542-.498 3.438-.5 5.768-2.274 2.218-1.72 3.217-3.772 1.053-2.107 1.053-5.601zm33.223 57.294h-26.012l-22.518-30.283h-9.817v30.283h-21.187v-82.585h35.718q7.321 0 12.59.832 5.27.832 9.873 3.605 4.658 2.774 7.376 7.21 2.773 4.382 2.773 11.038 0 9.151-4.27 14.92-4.216 5.767-12.091 9.594l27.565 35.386z" style="font-style:normal;font-variant:normal;font-weight:700;font-stretch:normal;font-family:sans-serif;-inkscape-font-specification:&quot;sans-serif Bold&quot;;fill:#e16049;fill-opacity:.95686275" transform="matrix(1.11799 0 0 .89446 93.75 -118.75)"/></g><rect width="642.383" height="146.22" x="444.042" y="632.106" ry="56.238" style="opacity:1;fill:#f7e6be;fill-opacity:1;fill-rule:evenodd;stroke:#e16049;stroke-width:20.60581017;stroke-linecap:round;stroke-linejoin:bevel;stroke-miterlimit:4;stroke-dasharray:none;stroke-opacity:.95588235"/><g style="font-style:normal;font-weight:400;font-size:96.47586823px;line-height:125%;font-family:sans-serif;letter-spacing:0;word-spacing:0;fill:#e16049;fill-opacity:.95686275;stroke:none;stroke-width:1px;stroke-linecap:butt;stroke-linejoin:miter;stroke-opacity:1"><path d="M495.705 794.768q0 10.364-8.809 16.865-8.762 6.453-23.836 6.453-8.715 0-15.216-1.507-6.453-1.554-12.106-3.91v-16.817h1.978q5.606 4.475 12.53 6.877 6.973 2.403 13.38 2.403 1.648 0 4.333-.283 2.685-.282 4.381-.942 2.073-.848 3.392-2.12 1.366-1.272 1.366-3.768 0-2.309-1.978-3.957-1.932-1.696-5.7-2.591-3.957-.942-8.386-1.743-4.38-.848-8.243-2.12-8.857-2.874-12.766-7.773-3.863-4.946-3.863-12.248 0-9.798 8.762-15.969 8.809-6.218 22.611-6.218 6.925 0 13.661 1.366 6.784 1.319 11.73 3.345v16.157h-1.931q-4.24-3.391-10.411-5.652-6.124-2.309-12.53-2.309-2.262 0-4.523.33-2.214.283-4.287 1.13-1.837.707-3.156 2.168-1.319 1.413-1.319 3.25 0 2.78 2.12 4.287 2.12 1.46 8.008 2.685 3.863.8 7.396 1.554 3.58.754 7.679 2.073 8.055 2.638 11.87 7.207 3.863 4.523 3.863 11.777zM539.657 818.18q-7.82 0-14.462-2.308-6.595-2.308-11.353-6.877-4.758-4.57-7.396-11.4-2.591-6.83-2.591-15.781 0-8.338 2.497-15.122 2.496-6.783 7.254-11.635 4.57-4.664 11.306-7.208 6.783-2.543 14.792-2.543 4.428 0 7.96.518 3.581.47 6.596 1.272 3.156.895 5.7 2.025 2.59 1.084 4.522 2.026v17.006h-2.073q-1.319-1.13-3.344-2.685-1.979-1.555-4.522-3.062-2.591-1.508-5.606-2.544-3.015-1.037-6.454-1.037-3.816 0-7.254 1.225-3.44 1.178-6.36 3.957-2.78 2.685-4.522 7.113-1.696 4.429-1.696 10.74 0 6.596 1.837 11.024 1.884 4.428 4.71 6.972 2.874 2.59 6.407 3.721 3.533 1.084 6.972 1.084 3.298 0 6.501-.99 3.25-.989 5.983-2.684 2.308-1.367 4.286-2.921 1.979-1.555 3.25-2.685h1.885v16.77q-2.638 1.178-5.04 2.214-2.403 1.036-5.04 1.79-3.44.99-6.454 1.508-3.015.518-8.291.518zM615.782 816.815h-41.078v-12.437H586.2v-45.27h-11.495v-12.436h41.078v12.436h-11.494v45.27h11.494v12.437zM686.773 794.768q0 10.364-8.81 16.865-8.761 6.453-23.835 6.453-8.715 0-15.216-1.507-6.454-1.554-12.107-3.91v-16.817h1.979q5.606 4.475 12.53 6.877 6.972 2.403 13.379 2.403 1.649 0 4.334-.283 2.685-.282 4.38-.942 2.073-.848 3.392-2.12 1.366-1.272 1.366-3.768 0-2.309-1.978-3.957-1.931-1.696-5.7-2.591-3.957-.942-8.385-1.743-4.381-.848-8.244-2.12-8.856-2.874-12.766-7.773-3.863-4.946-3.863-12.248 0-9.798 8.762-15.969 8.81-6.218 22.612-6.218 6.924 0 13.66 1.366 6.784 1.319 11.73 3.345v16.157h-1.93q-4.24-3.391-10.412-5.652-6.124-2.309-12.53-2.309-2.261 0-4.522.33-2.214.283-4.287 1.13-1.837.707-3.156 2.168-1.32 1.413-1.32 3.25 0 2.78 2.12 4.287 2.12 1.46 8.009 2.685 3.862.8 7.396 1.554 3.58.754 7.678 2.073 8.055 2.638 11.871 7.207 3.863 4.523 3.863 11.777zM755.173 794.768q0 10.364-8.81 16.865-8.761 6.453-23.836 6.453-8.714 0-15.215-1.507-6.454-1.554-12.107-3.91v-16.817h1.979q5.605 4.475 12.53 6.877 6.972 2.403 13.379 2.403 1.648 0 4.334-.283 2.685-.282 4.38-.942 2.073-.848 3.392-2.12 1.366-1.272 1.366-3.768 0-2.309-1.978-3.957-1.932-1.696-5.7-2.591-3.957-.942-8.385-1.743-4.381-.848-8.244-2.12-8.856-2.874-12.766-7.773-3.863-4.946-3.863-12.248 0-9.798 8.762-15.969 8.81-6.218 22.612-6.218 6.924 0 13.66 1.366 6.784 1.319 11.73 3.345v16.157h-1.931q-4.24-3.391-10.41-5.652-6.125-2.309-12.531-2.309-2.261 0-4.523.33-2.214.283-4.286 1.13-1.838.707-3.157 2.168-1.319 1.413-1.319 3.25 0 2.78 2.12 4.287 2.12 1.46 8.009 2.685 3.862.8 7.395 1.554 3.58.754 7.679 2.073 8.055 2.638 11.871 7.207 3.863 4.523 3.863 11.777zM835.632 781.767q0 16.77-9.61 26.662-9.61 9.846-26.568 9.846-16.912 0-26.522-9.846-9.61-9.892-9.61-26.662 0-16.912 9.61-26.71 9.61-9.846 26.522-9.846 16.864 0 26.521 9.846 9.657 9.798 9.657 26.71zm-23.978 17.76q2.638-3.204 3.91-7.538 1.272-4.381 1.272-10.27 0-6.312-1.46-10.74t-3.816-7.16q-2.402-2.827-5.558-4.099-3.11-1.271-6.501-1.271-3.44 0-6.501 1.224-3.015 1.225-5.559 4.052-2.355 2.638-3.863 7.301-1.46 4.617-1.46 10.74 0 6.266 1.413 10.694 1.46 4.381 3.816 7.16 2.355 2.78 5.512 4.099 3.156 1.319 6.642 1.319t6.642-1.32q3.156-1.365 5.511-4.192zM888.91 768.153q0-2.638-1.083-4.523-1.083-1.884-3.721-2.967-1.838-.754-4.287-.895-2.45-.189-5.7-.189h-6.548v18.89h5.559q4.333 0 7.254-.424 2.92-.424 4.9-1.931 1.884-1.46 2.732-3.203.895-1.79.895-4.758zm28.218 48.662h-22.093l-19.126-25.721h-8.338v25.72h-17.995v-70.142h30.337q6.218 0 10.693.706 4.476.707 8.386 3.062 3.957 2.356 6.265 6.124 2.355 3.722 2.355 9.375 0 7.772-3.627 12.672-3.58 4.899-10.27 8.15l23.413 30.054zM981.1 794.768q0 10.364-8.81 16.865-8.761 6.453-23.836 6.453-8.715 0-15.215-1.507-6.454-1.554-12.107-3.91v-16.817h1.978q5.606 4.475 12.531 6.877 6.972 2.403 13.379 2.403 1.648 0 4.333-.283 2.686-.282 4.381-.942 2.073-.848 3.392-2.12 1.366-1.272 1.366-3.768 0-2.309-1.978-3.957-1.932-1.696-5.7-2.591-3.957-.942-8.385-1.743-4.381-.848-8.244-2.12-8.856-2.874-12.766-7.773-3.863-4.946-3.863-12.248 0-9.798 8.762-15.969 8.809-6.218 22.611-6.218 6.925 0 13.662 1.366 6.783 1.319 11.73 3.345v16.157h-1.932q-4.24-3.391-10.41-5.652-6.125-2.309-12.531-2.309-2.262 0-4.523.33-2.214.283-4.286 1.13-1.838.707-3.157 2.168-1.319 1.413-1.319 3.25 0 2.78 2.12 4.287 2.12 1.46 8.008 2.685 3.863.8 7.396 1.554 3.58.754 7.679 2.073 8.055 2.638 11.87 7.207 3.864 4.523 3.864 11.777z" style="font-style:normal;font-variant:normal;font-weight:700;font-stretch:normal;font-family:sans-serif;-inkscape-font-specification:&quot;sans-serif Bold&quot;;fill:#e16049;fill-opacity:.95686275" transform="matrix(.94956 0 0 1.05312 93.75 -118.75)"/></g><rect width="642.383" height="146.22" x="-962.208" y="613.356" ry="56.238" style="opacity:1;fill:#f7e6be;fill-opacity:1;fill-rule:evenodd;stroke:#e16049;stroke-width:20.60581017;stroke-linecap:round;stroke-linejoin:bevel;stroke-miterlimit:4;stroke-dasharray:none;stroke-opacity:.95588235"/><g style="font-style:normal;font-weight:400;font-size:113.58812714px;line-height:125%;font-family:sans-serif;letter-spacing:0;word-spacing:0;fill:#e16049;fill-opacity:.95686275;stroke:none;stroke-width:1px;stroke-linecap:butt;stroke-linejoin:miter;stroke-opacity:1"><path d="M-788.64 883.44q0-3.106-1.275-5.324-1.275-2.219-4.381-3.494-2.163-.888-5.047-1.054-2.885-.222-6.711-.222h-7.71v22.24h6.545q5.102 0 8.541-.498 3.439-.5 5.768-2.274 2.219-1.72 3.217-3.772 1.054-2.108 1.054-5.602zm33.223 57.294h-26.012l-22.518-30.283h-9.817v30.283h-21.187v-82.585h35.718q7.322 0 12.59.832 5.27.832 9.873 3.605 4.659 2.773 7.377 7.21 2.773 4.382 2.773 11.038 0 9.15-4.271 14.92-4.215 5.767-12.09 9.594l27.564 35.386zM-665.9 899.47q0 19.744-11.314 31.391-11.314 11.592-31.281 11.592-19.911 0-31.226-11.592-11.314-11.647-11.314-31.392 0-19.911 11.314-31.447 11.315-11.592 31.226-11.592 19.856 0 31.225 11.592 11.37 11.536 11.37 31.447zm-28.23 20.909q3.106-3.772 4.603-8.874 1.498-5.159 1.498-12.091 0-7.432-1.72-12.646-1.719-5.213-4.492-8.43-2.829-3.328-6.545-4.826-3.66-1.497-7.654-1.497-4.048 0-7.654 1.442-3.55 1.442-6.544 4.77-2.773 3.106-4.548 8.597-1.72 5.435-1.72 12.645 0 7.377 1.664 12.59 1.72 5.158 4.493 8.43 2.773 3.273 6.489 4.826 3.716 1.553 7.82 1.553 4.105 0 7.82-1.553 3.717-1.609 6.49-4.936zM-612.156 942.342q-9.207 0-17.027-2.718-7.765-2.717-13.367-8.097-5.601-5.38-8.707-13.422-3.05-8.042-3.05-18.58 0-9.817 2.939-17.804 2.94-7.987 8.541-13.7 5.38-5.49 13.311-8.485 7.987-2.995 17.415-2.995 5.214 0 9.374.61 4.215.554 7.765 1.497 3.716 1.054 6.71 2.385 3.051 1.276 5.325 2.385v20.022h-2.44q-1.553-1.33-3.938-3.161-2.33-1.83-5.325-3.605-3.05-1.775-6.6-2.995-3.55-1.22-7.598-1.22-4.493 0-8.542 1.442-4.048 1.386-7.487 4.659-3.272 3.16-5.324 8.374-1.997 5.214-1.997 12.646 0 7.765 2.163 12.978 2.218 5.214 5.546 8.209 3.383 3.05 7.543 4.381 4.16 1.276 8.209 1.276 3.882 0 7.654-1.165 3.827-1.164 7.043-3.161 2.718-1.608 5.047-3.439 2.33-1.83 3.827-3.161h2.219v19.745q-3.106 1.386-5.935 2.606-2.828 1.22-5.934 2.108-4.049 1.165-7.599 1.775-3.55.61-9.761.61zM-490.082 940.734h-26.123l-24.681-33.056-4.992 6.045v27.01h-21.298V858.15h21.298v37.382l29.507-37.382h24.68l-32.279 38.214 33.888 44.37z" style="font-style:normal;font-variant:normal;font-weight:700;font-stretch:normal;font-family:sans-serif;-inkscape-font-specification:&quot;sans-serif Bold&quot;;fill:#e16049;fill-opacity:.95686275" transform="matrix(1.11799 0 0 .89446 93.75 -118.75)"/></g></g></svg>